<?xml version="1.0" standalone="no"?>
<!DOCTYPE svg PUBLIC "-//W3C//DTD SVG 20010904//EN"
 "http://www.w3.org/TR/2001/REC-SVG-20010904/DTD/svg10.dtd">
<svg version="1.0" xmlns="http://www.w3.org/2000/svg"
 width="1000.000000pt" height="1000.000000pt" viewBox="0 0 1000.000000 1000.000000"
 preserveAspectRatio="xMidYMid meet">
<metadata>
Created by potrace 1.11, written by Peter Selinger 2001-2013
</metadata>
<g transform="translate(0.000000,1000.000000) scale(0.100000,-0.100000)"
fill="#000000" stroke="none">
<path d="M4725 9894 c-813 -52 -1567 -284 -2245 -692 -566 -340 -1059 -792
-1453 -1334 -403 -554 -689 -1208 -827 -1888 -349 -1726 241 -3488 1555 -4649
304 -269 612 -480 985 -679 915 -485 2047 -662 3088 -481 905 157 1737 556
2422 1163 101 89 321 310 419 421 520 586 893 1291 1081 2045 226 902 195
1834 -90 2715 -361 1116 -1128 2079 -2140 2687 -617 371 -1285 594 -2020 673
-138 15 -642 27 -775 19z m660 -305 c797 -63 1592 -350 2250 -811 1113 -780
1818 -1989 1950 -3343 35 -355 19 -833 -41 -1185 -244 -1458 -1156 -2698
-2469 -3360 -526 -265 -1056 -419 -1645 -476 -220 -21 -640 -21 -860 0 -1025
100 -1950 516 -2710 1218 -742 686 -1234 1605 -1404 2618 -77 457 -79 1010 -5
1475 266 1672 1438 3072 3036 3625 446 154 877 235 1358 254 116 4 390 -3 540
-15z"/>
<path d="M1993 6900 c-80 -19 -158 -86 -197 -170 -20 -43 -21 -61 -21 -385 l0
-340 28 -57 c16 -32 48 -75 73 -97 82 -72 83 -72 605 -69 l464 3 54 30 c29 16
68 47 87 69 60 70 63 94 65 464 l1 333 -31 64 c-37 74 -84 117 -159 145 -50
19 -77 20 -495 19 -243 -1 -456 -4 -474 -9z"/>
<path d="M3667 6896 c-88 -32 -149 -90 -184 -176 -16 -41 -18 -78 -18 -380 l0
-335 28 -57 c30 -60 84 -114 146 -145 33 -17 72 -18 516 -18 479 0 480 0 522
23 66 35 110 79 140 140 l28 57 0 330 c0 291 -2 336 -18 381 -24 69 -76 127
-145 161 l-57 28 -460 2 c-369 2 -467 0 -498 -11z"/>
<path d="M5352 6891 c-102 -35 -173 -117 -193 -225 -6 -37 -9 -171 -7 -360 l3
-301 28 -57 c30 -60 84 -114 146 -145 33 -17 72 -18 516 -18 444 0 483 1 516
18 62 31 116 85 146 145 l28 57 0 340 0 340 -28 57 c-34 69 -91 121 -164 148
-51 19 -77 20 -496 20 -402 -1 -447 -2 -495 -19z"/>
<path d="M7063 6901 c-50 -13 -118 -57 -152 -100 -66 -83 -66 -81 -66 -456 l0
-340 28 -57 c30 -61 74 -105 140 -140 42 -23 46 -23 510 -26 l469 -3 52 24
c73 33 121 79 153 145 l28 57 0 330 c0 238 -4 342 -13 372 -20 66 -82 137
-149 169 l-58 29 -455 2 c-250 1 -469 -2 -487 -6z"/>
<path d="M2197 5389 c-92 -22 -167 -82 -208 -165 -24 -48 -24 -55 -27 -362 -4
-360 0 -394 59 -476 31 -43 53 -62 106 -88 l68 -33 460 0 460 0 57 28 c32 16
75 48 97 73 70 80 72 96 69 486 l-3 343 -27 46 c-33 57 -87 105 -147 133 -44
20 -62 21 -486 23 -242 1 -457 -3 -478 -8z"/>
<path d="M3761 5390 c-93 -19 -185 -100 -215 -188 -24 -68 -23 -677 0 -745 21
-63 83 -130 152 -164 l57 -28 425 -3 c289 -2 444 0 485 8 113 21 207 110 235
220 7 30 10 152 8 365 -3 303 -4 322 -24 366 -28 60 -86 118 -149 149 l-50 25
-440 2 c-242 1 -460 -3 -484 -7z"/>
<path d="M5330 5391 c-64 -13 -132 -54 -172 -104 -65 -83 -69 -112 -66 -479 3
-306 4 -325 24 -369 28 -60 87 -119 150 -150 l49 -24 465 0 465 0 57 28 c69
34 131 101 152 164 24 69 24 677 0 746 -21 63 -83 130 -152 164 l-57 28 -440
2 c-242 1 -456 -2 -475 -6z"/>
<path d="M6891 5389 c-93 -18 -185 -99 -215 -187 -24 -68 -23 -677 0 -745 21
-63 83 -130 152 -164 l57 -28 460 0 460 0 68 33 c53 26 75 45 106 88 59 82 63
116 59 476 -3 307 -3 314 -27 362 -32 64 -82 113 -150 145 l-56 26 -435 2
c-239 1 -455 -3 -479 -8z"/>
<path d="M2492 3601 c-76 -26 -122 -67 -162 -146 l-35 -68 0 -226 c0 -159 4
-240 13 -272 21 -71 78 -139 147 -174 l59 -30 2486 0 2486 0 59 30 c69 35 126
103 147 174 9 32 13 113 13 271 l0 225 -33 68 c-24 47 -47 77 -79 102 -92 70
114 65 -2597 65 -2348 -1 -2453 -1 -2504 -19z"/>
</g>
</svg>
