<?xml version="1.0" standalone="no"?>
<!DOCTYPE svg PUBLIC "-//W3C//DTD SVG 20010904//EN"
 "http://www.w3.org/TR/2001/REC-SVG-20010904/DTD/svg10.dtd">
<svg version="1.0" xmlns="http://www.w3.org/2000/svg"
 width="700.000000pt" height="700.000000pt" viewBox="0 0 700.000000 700.000000"
 preserveAspectRatio="xMidYMid meet">
<metadata>
Created by potrace 1.11, written by Peter Selinger 2001-2013
</metadata>
<g transform="translate(0.000000,700.000000) scale(0.100000,-0.100000)"
fill="#000000" stroke="none">
<path d="M1109 5825 c-174 -34 -272 -210 -215 -385 18 -53 54 -90 814 -852
l796 -797 -788 -788 c-433 -433 -795 -801 -804 -818 -80 -155 -25 -324 131
-407 61 -33 184 -32 249 1 33 17 296 273 952 930 499 498 914 920 924 936 45
74 50 192 11 273 -17 36 -227 252 -933 957 -587 586 -924 917 -949 928 -56 27
-125 35 -188 22z"/>
<path d="M3404 1732 c-60 -21 -108 -59 -146 -115 -116 -170 -12 -409 194 -445
75 -13 2417 -7 2464 6 84 24 172 112 195 196 40 141 -20 277 -154 348 l-42 23
-1230 2 c-1156 2 -1233 1 -1281 -15z"/>
</g>
</svg>
